<svg width="35" height="35" viewBox="0 0 35 35" fill="none" xmlns="http://www.w3.org/2000/svg">
<rect x="35" width="35" height="35" rx="8" transform="rotate(90 35 0)" fill="white"/>
<path d="M17.3615 24.179C16.4411 24.179 15.6229 24.0213 14.907 23.706C14.1953 23.3906 13.6328 22.9517 13.2195 22.3892C12.8061 21.8267 12.5866 21.1768 12.5611 20.4396H14.9645C14.9858 20.7933 15.103 21.1023 15.3161 21.3665C15.5291 21.6264 15.8125 21.8288 16.1662 21.9737C16.5199 22.1186 16.9162 22.1911 17.3551 22.1911C17.8239 22.1911 18.2393 22.1101 18.6016 21.9482C18.9638 21.782 19.2472 21.5518 19.4517 21.2578C19.6563 20.9638 19.7564 20.625 19.7521 20.2415C19.7564 19.8452 19.6541 19.4957 19.4453 19.1932C19.2365 18.8906 18.9339 18.6541 18.5376 18.4837C18.1456 18.3132 17.6726 18.228 17.1186 18.228H15.9616V16.3999H17.1186C17.5746 16.3999 17.973 16.321 18.3139 16.1634C18.6591 16.0057 18.9297 15.7841 19.1257 15.4986C19.3217 15.2088 19.4176 14.8743 19.4134 14.495C19.4176 14.1243 19.3345 13.8026 19.1641 13.5298C18.9979 13.2528 18.7614 13.0376 18.4545 12.8842C18.152 12.7308 17.7962 12.6541 17.3871 12.6541C16.9865 12.6541 16.6158 12.7266 16.2749 12.8714C15.9339 13.0163 15.6591 13.223 15.4503 13.4915C15.2415 13.7557 15.1307 14.071 15.1179 14.4375H12.8359C12.853 13.7045 13.0639 13.0611 13.4688 12.5071C13.8778 11.9489 14.4233 11.5142 15.1051 11.2031C15.7869 10.8878 16.5518 10.7301 17.3999 10.7301C18.2734 10.7301 19.032 10.8942 19.6754 11.2223C20.3232 11.5462 20.8239 11.983 21.1776 12.5327C21.5313 13.0824 21.7081 13.6896 21.7081 14.3544C21.7124 15.0916 21.495 15.7095 21.0561 16.2081C20.6214 16.7067 20.0504 17.0327 19.343 17.1861V17.2884C20.2635 17.4162 20.9688 17.7571 21.4588 18.3111C21.9531 18.8608 22.1982 19.5447 22.1939 20.3629C22.1939 21.0959 21.9851 21.7521 21.5675 22.3317C21.1541 22.907 20.5831 23.3587 19.8544 23.6868C19.13 24.0149 18.299 24.179 17.3615 24.179Z" fill="#F0D075"/>
</svg>
