<svg width="35" height="35" viewBox="0 0 35 35" fill="none" xmlns="http://www.w3.org/2000/svg">
<rect x="35" width="35" height="35" rx="8" transform="rotate(90 35 0)" fill="white"/>
<path d="M12.6634 24V22.2869L17.2081 17.8317C17.6428 17.3928 18.005 17.0028 18.2947 16.6619C18.5845 16.321 18.8018 15.9908 18.9467 15.6712C19.0916 15.3516 19.1641 15.0107 19.1641 14.6484C19.1641 14.2351 19.0703 13.8814 18.8828 13.5874C18.6953 13.2891 18.4375 13.0589 18.1094 12.897C17.7812 12.7351 17.4084 12.6541 16.9908 12.6541C16.5604 12.6541 16.1832 12.7436 15.8594 12.9226C15.5355 13.0973 15.2841 13.3466 15.1051 13.6705C14.9304 13.9943 14.843 14.38 14.843 14.8274H12.5866C12.5866 13.9964 12.7763 13.2741 13.1555 12.6605C13.5348 12.0469 14.0568 11.5717 14.7216 11.2351C15.3906 10.8984 16.1577 10.7301 17.0227 10.7301C17.9006 10.7301 18.6719 10.8942 19.3366 11.2223C20.0014 11.5504 20.517 12 20.8835 12.571C21.2543 13.142 21.4396 13.794 21.4396 14.527C21.4396 15.017 21.3459 15.4986 21.1584 15.9716C20.9709 16.4446 20.6406 16.9687 20.1676 17.544C19.6989 18.1193 19.0405 18.8161 18.1925 19.6342L15.9361 21.929V22.0185H21.6378V24H12.6634Z" fill="#65B2D6"/>
</svg>
